# xmcd
#
# Track frame offsets: 
#        150
#        12470
#        27040
#        38912
#        50992
#        62562
#        73820
#        85410
#        97012
#        108377
#        121527
#        133307
#        144850
#        157522
#        170217
#        185185
#
# Disc length: 2657 seconds
#
# Revision: 2
# Processed by: cddbd v1.5.2PL0 Copyright (c) Steve Scherf et al.
# Submitted via: ExactAudioCopy v1.0b1
#
DISCID=e20a5f10
DTITLE=Various Artist - A Collection of 16 Big Hits - Volume 2
DYEAR=1963
DGENRE=R&B
TTITLE0=Martha and The Vandellas - Heatwave
TTITLE1=Stevie Wonder - Fingertips - Part II
TTITLE2=The Supremes - When The Lovelight Starts Shining In His Eyes
TTITLE3=The Miracles - I Gotta Dance To Keep From Crying
TTITLE4=Eddie Holland - Leaving Here
TTITLE5=Mary Wells - You Lost The Sweetest Boy
TTITLE6=The Temptations - I Want A Love I Can See
TTITLE7=The Marvelettes - As Long As I Know He's Mine
TTITLE8=Marvin Gaye - Hitch Hike
TTITLE9=Mary Wells - Bye Bye Baby
TTITLE10=The Contours - Shake Sherrie
TTITLE11=The Supremes - Buttered Popcorn
TTITLE12=Martha and The Vandellas - I'll Have To Let Him Go
TTITLE13=The Marvelettes - Playboy
TTITLE14=Kim Weston - Just Loving You
TTITLE15=The Valadiers - Greetings (This Is Uncle Sam)
EXTD=
EXTT0=
EXTT1=
EXTT2=
EXTT3=
EXTT4=
EXTT5=
EXTT6=
EXTT7=
EXTT8=
EXTT9=
EXTT10=
EXTT11=
EXTT12=
EXTT13=
EXTT14=
EXTT15=
PLAYORDER=
